<svg xmlns="http://www.w3.org/2000/svg" viewBox="-20 -20 140 140" width="280" height="280">
  <polyline points="18,21.2 88.4,8.4" fill="none" stroke="#198599" stroke-width="11" stroke-linecap="round" stroke-linejoin="round"/>
  <line x1="27.2" y1="19.53" x2="31.27" y2="24.25" fill="none" stroke="#198599" stroke-width="5.5" stroke-linecap="round"/>
  <line x1="27.2" y1="19.53" x2="29.35" y2="13.67" fill="none" stroke="#198599" stroke-width="5.5" stroke-linecap="round"/>
  <line x1="88.4" y1="8.4" x2="98.02" y2="10.75" fill="none" stroke="#198599" stroke-width="5.5" stroke-linecap="round"/>
  <line x1="88.4" y1="8.4" x2="96.57" y2="2.81" fill="none" stroke="#198599" stroke-width="5.5" stroke-linecap="round"/>
  <circle cx="9.04" cy="22.83" r="7.92" fill="#198599"/>
  <polyline points="22.8,51.6 93.2,35.6" fill="none" stroke="#198599" stroke-width="11" stroke-linecap="round" stroke-linejoin="round"/>
  <line x1="31.92" y1="49.53" x2="36.19" y2="54.07" fill="none" stroke="#198599" stroke-width="5.5" stroke-linecap="round"/>
  <line x1="31.92" y1="49.53" x2="33.81" y2="43.58" fill="none" stroke="#198599" stroke-width="5.5" stroke-linecap="round"/>
  <line x1="93.2" y1="35.6" x2="102.91" y2="37.53" fill="none" stroke="#198599" stroke-width="5.5" stroke-linecap="round"/>
  <line x1="93.2" y1="35.6" x2="101.12" y2="29.66" fill="none" stroke="#198599" stroke-width="5.5" stroke-linecap="round"/>
  <circle cx="13.92" cy="53.62" r="7.92" fill="#198599"/>
  <polyline points="46.8,3.6 69.2,86.8" fill="none" stroke="#198599" stroke-width="11" stroke-linecap="round" stroke-linejoin="round"/>
  <line x1="49.23" y1="12.63" x2="44.86" y2="17.08" fill="none" stroke="#198599" stroke-width="5.5" stroke-linecap="round"/>
  <line x1="49.23" y1="12.63" x2="55.24" y2="14.28" fill="none" stroke="#198599" stroke-width="5.5" stroke-linecap="round"/>
  <line x1="69.2" y1="86.8" x2="67.65" y2="96.58" fill="none" stroke="#198599" stroke-width="5.5" stroke-linecap="round"/>
  <line x1="69.2" y1="86.8" x2="75.45" y2="94.48" fill="none" stroke="#198599" stroke-width="5.5" stroke-linecap="round"/>
  <circle cx="44.43" cy="-5.19" r="7.92" fill="#198599"/>
</svg>
